<?xml version="1.0" encoding="UTF-8" standalone="no"?>
<!-- Created with Inkscape (http://www.inkscape.org/) -->

<svg
   xmlns:dc="http://purl.org/dc/elements/1.1/"
   xmlns:cc="http://creativecommons.org/ns#"
   xmlns:rdf="http://www.w3.org/1999/02/22-rdf-syntax-ns#"
   xmlns:svg="http://www.w3.org/2000/svg"
   xmlns="http://www.w3.org/2000/svg"
   xmlns:sodipodi="http://sodipodi.sourceforge.net/DTD/sodipodi-0.dtd"
   xmlns:inkscape="http://www.inkscape.org/namespaces/inkscape"
   width="210mm"
   height="297mm"
   viewBox="0 0 210 297"
   version="1.1"
   id="svg9904"
   inkscape:version="0.92.0 r15299"
   sodipodi:docname="background.svg">
  <defs
     id="defs9898" />
  <sodipodi:namedview
     id="base"
     pagecolor="#ffffff"
     bordercolor="#666666"
     borderopacity="1.0"
     inkscape:pageopacity="0.0"
     inkscape:pageshadow="2"
     inkscape:zoom="0.35"
     inkscape:cx="400"
     inkscape:cy="560"
     inkscape:document-units="mm"
     inkscape:current-layer="layer1"
     showgrid="false"
     inkscape:window-width="1920"
     inkscape:window-height="1017"
     inkscape:window-x="-8"
     inkscape:window-y="-8"
     inkscape:window-maximized="1" />
  <metadata
     id="metadata9901">
    <rdf:RDF>
      <cc:Work
         rdf:about="">
        <dc:format>image/svg+xml</dc:format>
        <dc:type
           rdf:resource="http://purl.org/dc/dcmitype/StillImage" />
        <dc:title></dc:title>
      </cc:Work>
    </rdf:RDF>
  </metadata>
  <g
     inkscape:label="Layer 1"
     inkscape:groupmode="layer"
     id="layer1">
    <g
       id="g6549"
       transform="translate(-322.94829,-18.030242)"
       style="fill:#6052a8;fill-opacity:0.91457286">
      <rect
         y="18.501747"
         x="323.58548"
         height="297.49762"
         width="210.84586"
         id="rect4923"
         style="fill:#6052a8;fill-opacity:0.91457286;stroke-width:0.3716239" />
      <g
         transform="matrix(1.0345745,0,0,1.0882353,323.91891,11.541183)"
         style="fill:#6052a8;fill-opacity:0.91457286"
         id="g6062">
        <path
           style="fill:#6052a8;fill-opacity:0.91457286;stroke-width:0.19639215"
           id="path5602"
           sodipodi:type="arc"
           sodipodi:cx="88.198944"
           sodipodi:cy="97.349655"
           sodipodi:rx="6.4144683"
           sodipodi:ry="6.6817374"
           sodipodi:start="0"
           sodipodi:end="6.2813004"
           d="m 94.613412,97.349655 a 6.4144683,6.6817374 0 0 1 -6.411445,6.681735 6.4144683,6.6817374 0 0 1 -6.417488,-6.675438 6.4144683,6.6817374 0 0 1 6.405397,-6.688028 6.4144683,6.6817374 0 0 1 6.423525,6.669137 l -6.414457,0.01259 z" />
        <path
           d="m 91.940718,40.153988 a 4.2763119,4.5435815 0 0 1 -4.274297,4.543581 4.2763119,4.5435815 0 0 1 -4.278325,-4.539299 4.2763119,4.5435815 0 0 1 4.270264,-4.547859 4.2763119,4.5435815 0 0 1 4.28235,4.535013 l -4.276304,0.0086 z"
           sodipodi:end="6.2813004"
           sodipodi:start="0"
           sodipodi:ry="4.5435815"
           sodipodi:rx="4.2763119"
           sodipodi:cy="40.153988"
           sodipodi:cx="87.664406"
           sodipodi:type="arc"
           id="path5613"
           style="fill:#6052a8;fill-opacity:0.91457286;stroke-width:0.13223089" />
        <path
           style="fill:#6052a8;fill-opacity:0.91457286;stroke-width:0.20028149"
           id="path5602-8"
           sodipodi:type="arc"
           sodipodi:cx="160.09444"
           sodipodi:cy="133.69832"
           sodipodi:rx="6.4144683"
           sodipodi:ry="6.949007"
           sodipodi:start="0"
           sodipodi:end="6.2813004"
           d="m 166.5089,133.69832 a 6.4144683,6.949007 0 0 1 -6.41144,6.949 6.4144683,6.949007 0 0 1 -6.41749,-6.94245 6.4144683,6.949007 0 0 1 6.4054,-6.95555 6.4144683,6.949007 0 0 1 6.42352,6.9359 l -6.41445,0.0131 z" />
        <path
           style="fill:#6052a8;fill-opacity:0.91457286;stroke-width:0.09211607"
           id="path5602-7"
           sodipodi:type="arc"
           sodipodi:cx="164.11995"
           sodipodi:cy="68.791763"
           sodipodi:rx="2.9399643"
           sodipodi:ry="3.2072337"
           sodipodi:start="0"
           sodipodi:end="6.2813004"
           d="m 167.05991,68.791763 a 2.9399643,3.2072337 0 0 1 -2.93858,3.207234 2.9399643,3.2072337 0 0 1 -2.94134,-3.204211 2.9399643,3.2072337 0 0 1 2.9358,-3.210253 2.9399643,3.2072337 0 0 1 2.94412,3.201185 l -2.93996,0.006 z" />
        <path
           style="fill:#6052a8;fill-opacity:0.91457286;stroke-width:0.1521247"
           id="path5602-5"
           sodipodi:type="arc"
           sodipodi:cx="165.43983"
           sodipodi:cy="105.90228"
           sodipodi:rx="5.3453898"
           sodipodi:ry="4.8108511"
           sodipodi:start="0"
           sodipodi:end="6.2813004"
           d="m 170.78522,105.90228 a 5.3453898,4.8108511 0 0 1 -5.34287,4.81085 5.3453898,4.8108511 0 0 1 -5.3479,-4.80631 5.3453898,4.8108511 0 0 1 5.33783,-4.81538 5.3453898,4.8108511 0 0 1 5.35293,4.80177 l -5.34538,0.009 z" />
        <path
           style="fill:#6052a8;fill-opacity:0.91457286;stroke-width:0.16818018"
           id="path5602-6-9"
           sodipodi:type="arc"
           sodipodi:cx="180.13966"
           sodipodi:cy="169.24518"
           sodipodi:rx="5.3453903"
           sodipodi:ry="5.8799291"
           sodipodi:start="0"
           sodipodi:end="6.2813004"
           d="m 185.48505,169.24518 a 5.3453903,5.8799291 0 0 1 -5.34287,5.87993 5.3453903,5.8799291 0 0 1 -5.3479,-5.87439 5.3453903,5.8799291 0 0 1 5.33783,-5.88546 5.3453903,5.8799291 0 0 1 5.35293,5.86884 l -5.34538,0.0111 z" />
        <path
           style="fill:#6052a8;fill-opacity:0.91457286;stroke-width:0.18370804"
           id="path5602-6-1"
           sodipodi:type="arc"
           sodipodi:cx="121.34037"
           sodipodi:cy="174.05602"
           sodipodi:rx="6.6817374"
           sodipodi:ry="5.6126595"
           sodipodi:start="0"
           sodipodi:end="6.2813004"
           d="m 128.02211,174.05602 a 6.6817374,5.6126595 0 0 1 -6.67859,5.61265 6.6817374,5.6126595 0 0 1 -6.68488,-5.60737 6.6817374,5.6126595 0 0 1 6.67228,-5.61794 6.6817374,5.6126595 0 0 1 6.69118,5.60208 l -6.68173,0.0106 z" />
        <path
           style="fill:#6052a8;fill-opacity:0.91457286;stroke-width:0.1683712"
           id="path5602-6-4"
           sodipodi:type="arc"
           sodipodi:cx="118.66766"
           sodipodi:cy="198.11028"
           sodipodi:rx="5.6126595"
           sodipodi:ry="5.6126595"
           sodipodi:start="0"
           sodipodi:end="6.2813004"
           d="m 124.28032,198.11028 a 5.6126595,5.6126595 0 0 1 -5.61001,5.61265 5.6126595,5.6126595 0 0 1 -5.6153,-5.60737 5.6126595,5.6126595 0 0 1 5.60472,-5.61794 5.6126595,5.6126595 0 0 1 5.62058,5.60208 l -5.61265,0.0106 z" />
        <path
           style="fill:#6052a8;fill-opacity:0.91457286;stroke-width:0.19540773"
           id="path5602-6-5"
           sodipodi:type="arc"
           sodipodi:cx="19.777945"
           sodipodi:cy="33.739525"
           sodipodi:rx="7.2162766"
           sodipodi:ry="5.8799291"
           sodipodi:start="0"
           sodipodi:end="6.2813004"
           d="m 26.994221,33.739525 a 7.2162766,5.8799291 0 0 1 -7.212876,5.879928 7.2162766,5.8799291 0 0 1 -7.219674,-5.874387 7.2162766,5.8799291 0 0 1 7.206072,-5.885464 7.2162766,5.8799291 0 0 1 7.226465,5.86884 l -7.216263,0.01108 z" />
        <path
           style="fill:#6052a8;fill-opacity:0.91457286;stroke-width:0.18837273"
           id="path5602-6-77"
           sodipodi:type="arc"
           sodipodi:cx="16.83798"
           sodipodi:cy="136.63829"
           sodipodi:rx="6.4144683"
           sodipodi:ry="6.1471987"
           sodipodi:start="0"
           sodipodi:end="6.2813004"
           d="m 23.252449,136.63829 a 6.4144683,6.1471987 0 0 1 -6.411446,6.1472 6.4144683,6.1471987 0 0 1 -6.417488,-6.14141 6.4144683,6.1471987 0 0 1 6.405397,-6.15298 6.4144683,6.1471987 0 0 1 6.423525,6.1356 l -6.414457,0.0116 z" />
        <path
           style="fill:#6052a8;fill-opacity:0.91457286;stroke-width:0.17999639"
           id="path5602-6-72"
           sodipodi:type="arc"
           sodipodi:cx="48.375786"
           sodipodi:cy="245.1497"
           sodipodi:rx="6.4144683"
           sodipodi:ry="5.6126595"
           sodipodi:start="0"
           sodipodi:end="6.2813004"
           d="m 54.790254,245.1497 a 6.4144683,5.6126595 0 0 1 -6.411446,5.61266 6.4144683,5.6126595 0 0 1 -6.417488,-5.60737 6.4144683,5.6126595 0 0 1 6.405398,-5.61794 6.4144683,5.6126595 0 0 1 6.423525,5.60207 l -6.414457,0.0106 z" />
        <path
           style="fill:#6052a8;fill-opacity:0.91457286;stroke-width:0.18837273"
           id="path5602-6-726"
           sodipodi:type="arc"
           sodipodi:cx="94.880684"
           sodipodi:cy="136.63829"
           sodipodi:rx="6.4144683"
           sodipodi:ry="6.1471987"
           sodipodi:start="0"
           sodipodi:end="6.2813004"
           d="m 101.29515,136.63829 a 6.4144683,6.1471987 0 0 1 -6.411443,6.1472 6.4144683,6.1471987 0 0 1 -6.417489,-6.14141 6.4144683,6.1471987 0 0 1 6.405398,-6.15298 6.4144683,6.1471987 0 0 1 6.423524,6.1356 l -6.414456,0.0116 z" />
        <path
           style="fill:#6052a8;fill-opacity:0.91457286;stroke-width:0.18803117"
           id="path5602-6-727"
           sodipodi:type="arc"
           sodipodi:cx="159.29265"
           sodipodi:cy="-43.361217"
           sodipodi:rx="6.6817374"
           sodipodi:ry="5.8799291"
           sodipodi:start="0"
           sodipodi:end="6.2813004"
           d="m 165.97439,-43.361217 a 6.6817374,5.8799291 0 0 1 -6.67859,5.879928 6.6817374,5.8799291 0 0 1 -6.68489,-5.874387 6.6817374,5.8799291 0 0 1 6.67229,-5.885465 6.6817374,5.8799291 0 0 1 6.69117,5.86884 l -6.68172,0.01108 z"
           transform="scale(1,-1)" />
        <path
           style="fill:#6052a8;fill-opacity:0.91457286;stroke-width:0.19639215"
           id="path5602-6-6"
           sodipodi:type="arc"
           sodipodi:cx="28.33057"
           sodipodi:cy="68.484558"
           sodipodi:rx="6.6817374"
           sodipodi:ry="6.4144683"
           sodipodi:start="0"
           sodipodi:end="6.2813004"
           d="m 35.012308,68.484558 a 6.6817374,6.4144683 0 0 1 -6.678589,6.414468 6.6817374,6.4144683 0 0 1 -6.684883,-6.408423 6.6817374,6.4144683 0 0 1 6.672288,-6.420507 6.6817374,6.4144683 0 0 1 6.691172,6.402371 l -6.681726,0.01209 z" />
        <path
           style="fill:#6052a8;fill-opacity:0.91457286;stroke-width:0.09211607"
           id="path5602-7-3"
           sodipodi:type="arc"
           sodipodi:cx="191.89952"
           sodipodi:cy="80.511681"
           sodipodi:rx="2.9399643"
           sodipodi:ry="3.2072337"
           sodipodi:start="0"
           sodipodi:end="6.2813004"
           d="m 194.83949,80.511681 a 2.9399643,3.2072337 0 0 1 -2.93858,3.207233 2.9399643,3.2072337 0 0 1 -2.94135,-3.204211 2.9399643,3.2072337 0 0 1 2.9358,-3.210253 2.9399643,3.2072337 0 0 1 2.94412,3.201185 l -2.93996,0.006 z" />
        <path
           style="fill:#6052a8;fill-opacity:0.91457286;stroke-width:0.09211607"
           id="path5602-7-6"
           sodipodi:type="arc"
           sodipodi:cx="198.314"
           sodipodi:cy="85.322533"
           sodipodi:rx="2.9399643"
           sodipodi:ry="3.2072337"
           sodipodi:start="0"
           sodipodi:end="6.2813004"
           d="m 201.25396,85.322533 a 2.9399643,3.2072337 0 0 1 -2.93858,3.207233 2.9399643,3.2072337 0 0 1 -2.94135,-3.204211 2.9399643,3.2072337 0 0 1 2.93581,-3.210253 2.9399643,3.2072337 0 0 1 2.94411,3.201185 l -2.93995,0.006 z" />
        <path
           style="fill:#6052a8;fill-opacity:0.91457286;stroke-width:0.09211607"
           id="path5602-7-9"
           sodipodi:type="arc"
           sodipodi:cx="83.92263"
           sodipodi:cy="77.838989"
           sodipodi:rx="2.9399643"
           sodipodi:ry="3.2072337"
           sodipodi:start="0"
           sodipodi:end="6.2813004"
           d="m 86.862595,77.838989 a 2.9399643,3.2072337 0 0 1 -2.938579,3.207234 2.9399643,3.2072337 0 0 1 -2.941349,-3.204211 2.9399643,3.2072337 0 0 1 2.935807,-3.210253 2.9399643,3.2072337 0 0 1 2.944115,3.201185 l -2.939959,0.006 z" />
        <path
           style="fill:#6052a8;fill-opacity:0.91457286;stroke-width:0.09211607"
           id="path5602-7-4"
           sodipodi:type="arc"
           sodipodi:cx="14.967093"
           sodipodi:cy="48.973877"
           sodipodi:rx="2.9399643"
           sodipodi:ry="3.2072337"
           sodipodi:start="0"
           sodipodi:end="6.2813004"
           d="m 17.907058,48.973877 a 2.9399643,3.2072337 0 0 1 -2.938579,3.207233 2.9399643,3.2072337 0 0 1 -2.941349,-3.20421 2.9399643,3.2072337 0 0 1 2.935807,-3.210254 2.9399643,3.2072337 0 0 1 2.944116,3.201186 l -2.93996,0.006 z" />
        <path
           style="fill:#6052a8;fill-opacity:0.91457286;stroke-width:0.09211607"
           id="path5602-7-68"
           sodipodi:type="arc"
           sodipodi:cx="104.76965"
           sodipodi:cy="21.712387"
           sodipodi:rx="2.9399643"
           sodipodi:ry="3.2072337"
           sodipodi:start="0"
           sodipodi:end="6.2813004"
           d="m 107.70962,21.712387 a 2.9399643,3.2072337 0 0 1 -2.93858,3.207233 2.9399643,3.2072337 0 0 1 -2.94135,-3.20421 2.9399643,3.2072337 0 0 1 2.93581,-3.210253 2.9399643,3.2072337 0 0 1 2.94411,3.201185 l -2.93996,0.006 z" />
        <path
           style="fill:#6052a8;fill-opacity:0.91457286;stroke-width:0.09211607"
           id="path5602-7-0"
           sodipodi:type="arc"
           sodipodi:cx="51.850288"
           sodipodi:cy="166.03793"
           sodipodi:rx="2.9399643"
           sodipodi:ry="3.2072337"
           sodipodi:start="0"
           sodipodi:end="6.2813004"
           d="m 54.790253,166.03793 a 2.9399643,3.2072337 0 0 1 -2.938579,3.20724 2.9399643,3.2072337 0 0 1 -2.941349,-3.20421 2.9399643,3.2072337 0 0 1 2.935807,-3.21026 2.9399643,3.2072337 0 0 1 2.944115,3.20119 l -2.939959,0.006 z" />
        <path
           style="fill:#6052a8;fill-opacity:0.91457286;stroke-width:0.09211607"
           id="path5602-7-5"
           sodipodi:type="arc"
           sodipodi:cx="26.726954"
           sodipodi:cy="220.02638"
           sodipodi:rx="2.9399643"
           sodipodi:ry="3.2072337"
           sodipodi:start="0"
           sodipodi:end="6.2813004"
           d="m 29.666918,220.02638 a 2.9399643,3.2072337 0 0 1 -2.938579,3.20724 2.9399643,3.2072337 0 0 1 -2.941348,-3.20421 2.9399643,3.2072337 0 0 1 2.935806,-3.21026 2.9399643,3.2072337 0 0 1 2.944116,3.20119 l -2.939959,0.006 z" />
        <path
           style="fill:#6052a8;fill-opacity:0.91457286;stroke-width:0.09211607"
           id="path5602-7-95"
           sodipodi:type="arc"
           sodipodi:cx="107.97689"
           sodipodi:cy="257.44412"
           sodipodi:rx="2.9399643"
           sodipodi:ry="3.2072337"
           sodipodi:start="0"
           sodipodi:end="6.2813004"
           d="m 110.91685,257.44412 a 2.9399643,3.2072337 0 0 1 -2.93857,3.20724 2.9399643,3.2072337 0 0 1 -2.94135,-3.20422 2.9399643,3.2072337 0 0 1 2.9358,-3.21025 2.9399643,3.2072337 0 0 1 2.94412,3.20119 l -2.93996,0.006 z" />
        <path
           style="fill:#6052a8;fill-opacity:0.91457286;stroke-width:0.09211607"
           id="path5602-7-2"
           sodipodi:type="arc"
           sodipodi:cx="169.98341"
           sodipodi:cy="209.87013"
           sodipodi:rx="2.9399643"
           sodipodi:ry="3.2072337"
           sodipodi:start="0"
           sodipodi:end="6.2813004"
           d="m 172.92338,209.87013 a 2.9399643,3.2072337 0 0 1 -2.93858,3.20724 2.9399643,3.2072337 0 0 1 -2.94135,-3.20421 2.9399643,3.2072337 0 0 1 2.93581,-3.21026 2.9399643,3.2072337 0 0 1 2.94411,3.20119 l -2.93996,0.006 z" />
        <path
           style="fill:#6052a8;fill-opacity:0.91457286;stroke-width:0.09211607"
           id="path5602-7-34"
           sodipodi:type="arc"
           sodipodi:cx="149.1364"
           sodipodi:cy="170.31424"
           sodipodi:rx="2.9399643"
           sodipodi:ry="3.2072337"
           sodipodi:start="0"
           sodipodi:end="6.2813004"
           d="m 152.07636,170.31424 a 2.9399643,3.2072337 0 0 1 -2.93858,3.20723 2.9399643,3.2072337 0 0 1 -2.94134,-3.20421 2.9399643,3.2072337 0 0 1 2.9358,-3.21025 2.9399643,3.2072337 0 0 1 2.94412,3.20118 l -2.93996,0.006 z" />
        <path
           style="fill:#6052a8;fill-opacity:0.91457286;stroke-width:0.09211607"
           id="path5602-7-90"
           sodipodi:type="arc"
           sodipodi:cx="70.024612"
           sodipodi:cy="198.64482"
           sodipodi:rx="2.9399643"
           sodipodi:ry="3.2072337"
           sodipodi:start="0"
           sodipodi:end="6.2813004"
           d="m 72.964577,198.64482 a 2.9399643,3.2072337 0 0 1 -2.938579,3.20723 2.9399643,3.2072337 0 0 1 -2.941349,-3.20421 2.9399643,3.2072337 0 0 1 2.935807,-3.21025 2.9399643,3.2072337 0 0 1 2.944115,3.20119 l -2.939959,0.006 z" />
        <path
           style="fill:#6052a8;fill-opacity:0.91457286;stroke-width:0.09211607"
           id="path5602-7-61"
           sodipodi:type="arc"
           sodipodi:cx="69.490074"
           sodipodi:cy="131.82744"
           sodipodi:rx="2.9399643"
           sodipodi:ry="3.2072337"
           sodipodi:start="0"
           sodipodi:end="6.2813004"
           d="m 72.430038,131.82744 a 2.9399643,3.2072337 0 0 1 -2.938578,3.20723 2.9399643,3.2072337 0 0 1 -2.941349,-3.20421 2.9399643,3.2072337 0 0 1 2.935807,-3.21025 2.9399643,3.2072337 0 0 1 2.944115,3.20118 l -2.939959,0.006 z" />
        <path
           style="fill:#6052a8;fill-opacity:0.91457286;stroke-width:0.09211607"
           id="path5602-7-51"
           sodipodi:type="arc"
           sodipodi:cx="27.261492"
           sodipodi:cy="91.737"
           sodipodi:rx="2.9399643"
           sodipodi:ry="3.2072337"
           sodipodi:start="0"
           sodipodi:end="6.2813004"
           d="m 30.201456,91.737 a 2.9399643,3.2072337 0 0 1 -2.938579,3.207233 2.9399643,3.2072337 0 0 1 -2.941348,-3.204211 2.9399643,3.2072337 0 0 1 2.935807,-3.210253 2.9399643,3.2072337 0 0 1 2.944115,3.201185 l -2.939959,0.006 z" />
        <path
           style="fill:#6052a8;fill-opacity:0.91457286;stroke-width:0.09211607"
           id="path5602-7-37"
           sodipodi:type="arc"
           sodipodi:cx="116.52951"
           sodipodi:cy="89.064308"
           sodipodi:rx="2.9399643"
           sodipodi:ry="3.2072337"
           sodipodi:start="0"
           sodipodi:end="6.2813004"
           d="m 119.46947,89.064308 a 2.9399643,3.2072337 0 0 1 -2.93857,3.207233 2.9399643,3.2072337 0 0 1 -2.94135,-3.20421 2.9399643,3.2072337 0 0 1 2.9358,-3.210253 2.9399643,3.2072337 0 0 1 2.94412,3.201185 l -2.93996,0.006 z" />
        <path
           style="fill:#6052a8;fill-opacity:0.91457286;stroke-width:0.09211607"
           id="path5602-7-69"
           sodipodi:type="arc"
           sodipodi:cx="176.39789"
           sodipodi:cy="21.712387"
           sodipodi:rx="2.9399643"
           sodipodi:ry="3.2072337"
           sodipodi:start="0"
           sodipodi:end="6.2813004"
           d="m 179.33785,21.712387 a 2.9399643,3.2072337 0 0 1 -2.93858,3.207233 2.9399643,3.2072337 0 0 1 -2.94134,-3.20421 2.9399643,3.2072337 0 0 1 2.9358,-3.210253 2.9399643,3.2072337 0 0 1 2.94412,3.201185 l -2.93996,0.006 z" />
        <path
           style="fill:#6052a8;fill-opacity:0.91457286;stroke-width:0.09211607"
           id="path5602-7-7"
           sodipodi:type="arc"
           sodipodi:cx="59.868374"
           sodipodi:cy="10.487066"
           sodipodi:rx="2.9399643"
           sodipodi:ry="3.2072337"
           sodipodi:start="0"
           sodipodi:end="6.2813004"
           d="m 62.808338,10.487066 a 2.9399643,3.2072337 0 0 1 -2.938579,3.207234 2.9399643,3.2072337 0 0 1 -2.941348,-3.204211 2.9399643,3.2072337 0 0 1 2.935807,-3.2102532 2.9399643,3.2072337 0 0 1 2.944115,3.2011852 l -2.939959,0.006 z" />
        <path
           style="fill:#6052a8;fill-opacity:0.91457286;stroke-width:0.09211607"
           id="path5602-7-375"
           sodipodi:type="arc"
           sodipodi:cx="12.294398"
           sodipodi:cy="12.625223"
           sodipodi:rx="2.9399643"
           sodipodi:ry="3.2072337"
           sodipodi:start="0"
           sodipodi:end="6.2813004"
           d="m 15.234363,12.625223 a 2.9399643,3.2072337 0 0 1 -2.938579,3.207233 2.9399643,3.2072337 0 0 1 -2.9413487,-3.20421 2.9399643,3.2072337 0 0 1 2.9358067,-3.2102533 2.9399643,3.2072337 0 0 1 2.944115,3.2011853 l -2.939959,0.006 z" />
        <path
           style="fill:#6052a8;fill-opacity:0.91457286;stroke-width:0.09211607"
           id="path5602-7-8"
           sodipodi:type="arc"
           sodipodi:cx="59.333836"
           sodipodi:cy="52.181114"
           sodipodi:rx="2.9399643"
           sodipodi:ry="3.2072337"
           sodipodi:start="0"
           sodipodi:end="6.2813004"
           d="m 62.2738,52.181114 a 2.9399643,3.2072337 0 0 1 -2.938579,3.207234 2.9399643,3.2072337 0 0 1 -2.941348,-3.204211 2.9399643,3.2072337 0 0 1 2.935806,-3.210253 2.9399643,3.2072337 0 0 1 2.944116,3.201185 l -2.939959,0.006 z" />
        <path
           style="fill:#6052a8;fill-opacity:0.91457286;stroke-width:0.09211607"
           id="path5602-7-31"
           sodipodi:type="arc"
           sodipodi:cx="3.2072344"
           sodipodi:cy="219.49184"
           sodipodi:rx="2.9399643"
           sodipodi:ry="3.2072337"
           sodipodi:start="0"
           sodipodi:end="6.2813004"
           d="m 6.1471987,219.49184 a 2.9399643,3.2072337 0 0 1 -2.9385789,3.20723 2.9399643,3.2072337 0 0 1 -2.94134841,-3.20421 2.9399643,3.2072337 0 0 1 2.93580681,-3.21025 2.9399643,3.2072337 0 0 1 2.9441153,3.20118 l -2.9399591,0.006 z" />
        <path
           style="fill:#6052a8;fill-opacity:0.91457286;stroke-width:0.09211607"
           id="path5602-7-76"
           sodipodi:type="arc"
           sodipodi:cx="36.348656"
           sodipodi:cy="263.32404"
           sodipodi:rx="2.9399643"
           sodipodi:ry="3.2072337"
           sodipodi:start="0"
           sodipodi:end="6.2813004"
           d="m 39.28862,263.32404 a 2.9399643,3.2072337 0 0 1 -2.938579,3.20723 2.9399643,3.2072337 0 0 1 -2.941348,-3.20421 2.9399643,3.2072337 0 0 1 2.935807,-3.21025 2.9399643,3.2072337 0 0 1 2.944115,3.20118 l -2.939959,0.006 z" />
        <path
           style="fill:#6052a8;fill-opacity:0.91457286;stroke-width:0.09211607"
           id="path5602-7-52"
           sodipodi:type="arc"
           sodipodi:cx="136.842"
           sodipodi:cy="270.80759"
           sodipodi:rx="2.9399643"
           sodipodi:ry="3.2072337"
           sodipodi:start="0"
           sodipodi:end="6.2813004"
           d="m 139.78196,270.80759 a 2.9399643,3.2072337 0 0 1 -2.93858,3.20723 2.9399643,3.2072337 0 0 1 -2.94135,-3.20421 2.9399643,3.2072337 0 0 1 2.93581,-3.21025 2.9399643,3.2072337 0 0 1 2.94411,3.20118 l -2.93995,0.006 z" />
        <path
           style="fill:#6052a8;fill-opacity:0.91457286;stroke-width:0.09211607"
           id="path5602-7-517"
           sodipodi:type="arc"
           sodipodi:cx="184.95052"
           sodipodi:cy="243.01155"
           sodipodi:rx="2.9399643"
           sodipodi:ry="3.2072337"
           sodipodi:start="0"
           sodipodi:end="6.2813004"
           d="m 187.89048,243.01155 a 2.9399643,3.2072337 0 0 1 -2.93858,3.20723 2.9399643,3.2072337 0 0 1 -2.94135,-3.20421 2.9399643,3.2072337 0 0 1 2.93581,-3.21025 2.9399643,3.2072337 0 0 1 2.94411,3.20119 l -2.93995,0.006 z" />
        <path
           style="fill:#6052a8;fill-opacity:0.91457286;stroke-width:0.09211607"
           id="path5602-7-1"
           sodipodi:type="arc"
           sodipodi:cx="21.916101"
           sodipodi:cy="177.79779"
           sodipodi:rx="2.9399643"
           sodipodi:ry="3.2072337"
           sodipodi:start="0"
           sodipodi:end="6.2813004"
           d="m 24.856066,177.79779 a 2.9399643,3.2072337 0 0 1 -2.938579,3.20723 2.9399643,3.2072337 0 0 1 -2.941349,-3.20421 2.9399643,3.2072337 0 0 1 2.935807,-3.21025 2.9399643,3.2072337 0 0 1 2.944116,3.20119 l -2.93996,0.006 z" />
        <path
           style="fill:#6052a8;fill-opacity:0.91457286;stroke-width:0.09211607"
           id="path5602-7-762"
           sodipodi:type="arc"
           sodipodi:cx="88.733482"
           sodipodi:cy="181.00502"
           sodipodi:rx="2.9399643"
           sodipodi:ry="3.2072337"
           sodipodi:start="0"
           sodipodi:end="6.2813004"
           d="m 91.673447,181.00502 a 2.9399643,3.2072337 0 0 1 -2.938579,3.20723 2.9399643,3.2072337 0 0 1 -2.941349,-3.20421 2.9399643,3.2072337 0 0 1 2.935807,-3.21025 2.9399643,3.2072337 0 0 1 2.944115,3.20118 l -2.939959,0.006 z" />
        <path
           style="fill:#6052a8;fill-opacity:0.91457286;stroke-width:0.09211607"
           id="path5602-7-56"
           sodipodi:type="arc"
           sodipodi:cx="132.56569"
           sodipodi:cy="102.96233"
           sodipodi:rx="2.9399643"
           sodipodi:ry="3.2072337"
           sodipodi:start="0"
           sodipodi:end="6.2813004"
           d="m 135.50565,102.96233 a 2.9399643,3.2072337 0 0 1 -2.93858,3.20724 2.9399643,3.2072337 0 0 1 -2.94134,-3.20421 2.9399643,3.2072337 0 0 1 2.9358,-3.210257 2.9399643,3.2072337 0 0 1 2.94412,3.201187 l -2.93996,0.006 z" />
        <path
           style="fill:#6052a8;fill-opacity:0.91457286;stroke-width:0.09211607"
           id="path5602-7-88"
           sodipodi:type="arc"
           sodipodi:cx="190.2959"
           sodipodi:cy="121.67119"
           sodipodi:rx="2.9399643"
           sodipodi:ry="3.2072337"
           sodipodi:start="0"
           sodipodi:end="6.2813004"
           d="m 193.23586,121.67119 a 2.9399643,3.2072337 0 0 1 -2.93858,3.20723 2.9399643,3.2072337 0 0 1 -2.94134,-3.20421 2.9399643,3.2072337 0 0 1 2.9358,-3.21025 2.9399643,3.2072337 0 0 1 2.94412,3.20118 l -2.93996,0.006 z" />
        <path
           style="fill:#6052a8;fill-opacity:0.91457286;stroke-width:0.09211607"
           id="path5602-7-17"
           sodipodi:type="arc"
           sodipodi:cx="181.20874"
           sodipodi:cy="34.006786"
           sodipodi:rx="2.9399643"
           sodipodi:ry="3.2072337"
           sodipodi:start="0"
           sodipodi:end="6.2813004"
           d="m 184.1487,34.006786 a 2.9399643,3.2072337 0 0 1 -2.93857,3.207234 2.9399643,3.2072337 0 0 1 -2.94135,-3.204211 2.9399643,3.2072337 0 0 1 2.9358,-3.210253 2.9399643,3.2072337 0 0 1 2.94412,3.201185 l -2.93996,0.006 z" />
        <path
           style="fill:#6052a8;fill-opacity:0.91457286;stroke-width:0.09211607"
           id="path5602-7-32"
           sodipodi:type="arc"
           sodipodi:cx="134.1693"
           sodipodi:cy="17.436073"
           sodipodi:rx="2.9399643"
           sodipodi:ry="3.2072337"
           sodipodi:start="0"
           sodipodi:end="6.2813004"
           d="m 137.10926,17.436073 a 2.9399643,3.2072337 0 0 1 -2.93858,3.207234 2.9399643,3.2072337 0 0 1 -2.94135,-3.204211 2.9399643,3.2072337 0 0 1 2.93581,-3.210253 2.9399643,3.2072337 0 0 1 2.94412,3.201185 l -2.93996,0.006 z" />
        <path
           style="fill:#6052a8;fill-opacity:0.91457286;stroke-width:0.09211607"
           id="path5602-7-73"
           sodipodi:type="arc"
           sodipodi:cx="128.82391"
           sodipodi:cy="65.544586"
           sodipodi:rx="2.9399643"
           sodipodi:ry="3.2072337"
           sodipodi:start="0"
           sodipodi:end="6.2813004"
           d="m 131.76388,65.544586 a 2.9399643,3.2072337 0 0 1 -2.93858,3.207233 2.9399643,3.2072337 0 0 1 -2.94135,-3.20421 2.9399643,3.2072337 0 0 1 2.93581,-3.210253 2.9399643,3.2072337 0 0 1 2.94411,3.201185 l -2.93996,0.006 z" />
        <path
           style="fill:#6052a8;fill-opacity:0.91457286;stroke-width:0.09211607"
           id="path5602-7-45"
           sodipodi:type="arc"
           sodipodi:cx="6.4144688"
           sodipodi:cy="150.00175"
           sodipodi:rx="2.9399643"
           sodipodi:ry="3.2072337"
           sodipodi:start="0"
           sodipodi:end="6.2813004"
           d="m 9.3544331,150.00175 a 2.9399643,3.2072337 0 0 1 -2.9385789,3.20724 2.9399643,3.2072337 0 0 1 -2.9413484,-3.20421 2.9399643,3.2072337 0 0 1 2.9358068,-3.21026 2.9399643,3.2072337 0 0 1 2.9441152,3.20119 l -2.939959,0.006 z" />
        <path
           style="fill:#6052a8;fill-opacity:0.91457286;stroke-width:0.09211607"
           id="path5602-7-98"
           sodipodi:type="arc"
           sodipodi:cx="44.366741"
           sodipodi:cy="130.75835"
           sodipodi:rx="2.9399643"
           sodipodi:ry="3.2072337"
           sodipodi:start="0"
           sodipodi:end="6.2813004"
           d="m 47.306705,130.75835 a 2.9399643,3.2072337 0 0 1 -2.938578,3.20723 2.9399643,3.2072337 0 0 1 -2.941349,-3.20421 2.9399643,3.2072337 0 0 1 2.935807,-3.21025 2.9399643,3.2072337 0 0 1 2.944115,3.20118 l -2.939959,0.006 z" />
        <path
           style="fill:#6052a8;fill-opacity:0.91457286;stroke-width:0.09211607"
           id="path5602-7-98-9"
           sodipodi:type="arc"
           sodipodi:cx="150.74002"
           sodipodi:cy="199.17935"
           sodipodi:rx="2.9399643"
           sodipodi:ry="3.2072337"
           sodipodi:start="0"
           sodipodi:end="6.2813004"
           d="m 153.67999,199.17935 a 2.9399643,3.2072337 0 0 1 -2.93858,3.20724 2.9399643,3.2072337 0 0 1 -2.94135,-3.20422 2.9399643,3.2072337 0 0 1 2.9358,-3.21025 2.9399643,3.2072337 0 0 1 2.94412,3.20119 l -2.93996,0.006 z" />
        <path
           style="fill:#6052a8;fill-opacity:0.91457286;stroke-width:0.09211607"
           id="path5602-7-98-4"
           sodipodi:type="arc"
           sodipodi:cx="122.40945"
           sodipodi:cy="219.49184"
           sodipodi:rx="2.9399643"
           sodipodi:ry="3.2072337"
           sodipodi:start="0"
           sodipodi:end="6.2813004"
           d="m 125.34941,219.49184 a 2.9399643,3.2072337 0 0 1 -2.93858,3.20723 2.9399643,3.2072337 0 0 1 -2.94135,-3.20421 2.9399643,3.2072337 0 0 1 2.93581,-3.21025 2.9399643,3.2072337 0 0 1 2.94412,3.20118 l -2.93996,0.006 z" />
        <path
           style="fill:#6052a8;fill-opacity:0.91457286;stroke-width:0.09211607"
           id="path5602-7-98-2"
           sodipodi:type="arc"
           sodipodi:cx="57.730217"
           sodipodi:cy="275.08389"
           sodipodi:rx="2.9399643"
           sodipodi:ry="3.2072337"
           sodipodi:start="0"
           sodipodi:end="6.2813004"
           d="m 60.670181,275.08389 a 2.9399643,3.2072337 0 0 1 -2.938579,3.20724 2.9399643,3.2072337 0 0 1 -2.941348,-3.20421 2.9399643,3.2072337 0 0 1 2.935807,-3.21026 2.9399643,3.2072337 0 0 1 2.944115,3.20119 l -2.939959,0.006 z" />
        <path
           style="fill:#6052a8;fill-opacity:0.91457286;stroke-width:0.09211607"
           id="path5602-7-98-22"
           sodipodi:type="arc"
           sodipodi:cx="173.72519"
           sodipodi:cy="276.68753"
           sodipodi:rx="2.9399643"
           sodipodi:ry="3.2072337"
           sodipodi:start="0"
           sodipodi:end="6.2813004"
           d="m 176.66515,276.68753 a 2.9399643,3.2072337 0 0 1 -2.93858,3.20723 2.9399643,3.2072337 0 0 1 -2.94134,-3.20421 2.9399643,3.2072337 0 0 1 2.9358,-3.21025 2.9399643,3.2072337 0 0 1 2.94412,3.20119 l -2.93996,0.006 z" />
        <path
           style="fill:#6052a8;fill-opacity:0.91457286;stroke-width:0.09211607"
           id="path5602-7-98-7"
           sodipodi:type="arc"
           sodipodi:cx="194.03767"
           sodipodi:cy="200.24843"
           sodipodi:rx="2.9399643"
           sodipodi:ry="3.2072337"
           sodipodi:start="0"
           sodipodi:end="6.2813004"
           d="m 196.97764,200.24843 a 2.9399643,3.2072337 0 0 1 -2.93858,3.20723 2.9399643,3.2072337 0 0 1 -2.94135,-3.20421 2.9399643,3.2072337 0 0 1 2.93581,-3.21025 2.9399643,3.2072337 0 0 1 2.94411,3.20118 l -2.93996,0.006 z" />
        <path
           style="fill:#6052a8;fill-opacity:0.91457286;stroke-width:0.09211607"
           id="path5602-7-98-8"
           sodipodi:type="arc"
           sodipodi:cx="63.075607"
           sodipodi:cy="96.547852"
           sodipodi:rx="2.9399643"
           sodipodi:ry="3.2072337"
           sodipodi:start="0"
           sodipodi:end="6.2813004"
           d="m 66.015572,96.547852 a 2.9399643,3.2072337 0 0 1 -2.938579,3.207233 2.9399643,3.2072337 0 0 1 -2.941349,-3.204211 2.9399643,3.2072337 0 0 1 2.935807,-3.210253 2.9399643,3.2072337 0 0 1 2.944115,3.201185 l -2.939959,0.006 z" />
        <path
           style="fill:#6052a8;fill-opacity:0.91457286;stroke-width:0.09211607"
           id="path5602-7-98-5"
           sodipodi:type="arc"
           sodipodi:cx="124.01306"
           sodipodi:cy="122.74026"
           sodipodi:rx="2.9399643"
           sodipodi:ry="3.2072337"
           sodipodi:start="0"
           sodipodi:end="6.2813004"
           d="m 126.95303,122.74026 a 2.9399643,3.2072337 0 0 1 -2.93858,3.20723 2.9399643,3.2072337 0 0 1 -2.94135,-3.20421 2.9399643,3.2072337 0 0 1 2.93581,-3.21025 2.9399643,3.2072337 0 0 1 2.94411,3.20118 l -2.93996,0.006 z" />
        <path
           style="fill:#6052a8;fill-opacity:0.91457286;stroke-width:0.09211607"
           id="path5602-7-98-84"
           sodipodi:type="arc"
           sodipodi:cx="88.198944"
           sodipodi:cy="146.79453"
           sodipodi:rx="2.9399643"
           sodipodi:ry="3.2072337"
           sodipodi:start="0"
           sodipodi:end="6.2813004"
           d="m 91.138908,146.79453 a 2.9399643,3.2072337 0 0 1 -2.938579,3.20723 2.9399643,3.2072337 0 0 1 -2.941348,-3.20421 2.9399643,3.2072337 0 0 1 2.935807,-3.21026 2.9399643,3.2072337 0 0 1 2.944115,3.20119 l -2.939959,0.006 z" />
      </g>
    </g>
  </g>
</svg>
