<?xml version="1.0" encoding="UTF-8" standalone="no"?>
<!-- Created with Inkscape (http://www.inkscape.org/) -->

<svg
   xmlns:dc="http://purl.org/dc/elements/1.1/"
   xmlns:cc="http://creativecommons.org/ns#"
   xmlns:rdf="http://www.w3.org/1999/02/22-rdf-syntax-ns#"
   xmlns:svg="http://www.w3.org/2000/svg"
   xmlns="http://www.w3.org/2000/svg"
   xmlns:xlink="http://www.w3.org/1999/xlink"
   xmlns:sodipodi="http://sodipodi.sourceforge.net/DTD/sodipodi-0.dtd"
   xmlns:inkscape="http://www.inkscape.org/namespaces/inkscape"
   width="20px"
   height="20px"
   viewBox="0 0 20 20"
   version="1.1"
   id="SVGRoot"
   inkscape:version="0.92.0 r15299"
   sodipodi:docname="knopka_upgrade.svg">
  <sodipodi:namedview
     id="base"
     pagecolor="#ffffff"
     bordercolor="#666666"
     borderopacity="1.0"
     inkscape:pageopacity="0.0"
     inkscape:pageshadow="2"
     inkscape:zoom="25.6"
     inkscape:cx="5.6375491"
     inkscape:cy="6.130137"
     inkscape:document-units="px"
     inkscape:current-layer="g4881"
     showgrid="false"
     inkscape:window-width="1920"
     inkscape:window-height="1017"
     inkscape:window-x="-8"
     inkscape:window-y="-8"
     inkscape:window-maximized="1"
     inkscape:grid-bbox="true"
     inkscape:pagecheckerboard="true" />
  <defs
     id="defs9757" />
  <metadata
     id="metadata9760">
    <rdf:RDF>
      <cc:Work
         rdf:about="">
        <dc:format>image/svg+xml</dc:format>
        <dc:type
           rdf:resource="http://purl.org/dc/dcmitype/StillImage" />
        <dc:title></dc:title>
      </cc:Work>
    </rdf:RDF>
  </metadata>
  <g
     id="layer1"
     inkscape:groupmode="layer"
     inkscape:label="Layer 1">
    <g
       style="display:inline"
       id="g4881"
       transform="matrix(0.31888127,0,0,0.31888127,-38.576719,-17.178534)">
      <path
         inkscape:href="#rect3988"
         transform="matrix(0.77331878,0,0,0.62606601,71.863442,2.6807805)"
         d="m 69.089844,112.44727 a 5.7513871,5.7513871 0 0 0 -5.75,5.75 v 1 1 22.1875 a 5.7513871,5.7513871 0 0 0 5.75,5.75 h 69.623046 a 5.7513871,5.7513871 0 0 0 5.75,-5.75 v -24.1875 a 5.7513871,5.7513871 0 0 0 -5.75,-5.75 z"
         id="path3994-20"
         style="fill:#ff922f;fill-opacity:1;stroke-width:0.26458332"
         xlink:href="#rect3988"
         inkscape:original="M 69.089844 118.19727 L 69.089844 119.19727 L 69.089844 120.19727 L 69.089844 142.38477 L 138.71289 142.38477 L 138.71289 118.19727 L 69.089844 118.19727 z "
         inkscape:radius="5.7508121"
         sodipodi:type="inkscape:offset" />
      <g
         aria-label="УЛУЧШЕНИЯ"
         transform="matrix(0.26019053,0,0,0.27364668,23.811895,-26.972863)"
         style="font-style:normal;font-variant:normal;font-weight:bold;font-stretch:normal;font-size:26.46392059px;line-height:23.51746559px;font-family:Cambria;-inkscape-font-specification:'Cambria Bold';letter-spacing:4.30700302px;word-spacing:0px;fill:#cc4d00;fill-opacity:1;stroke:none"
         id="flowRoot3996-4">
        <path
           d="m 401.65663,410.20008 q -1.17589,2.481 -2.32593,3.70857 -1.15005,1.22758 -2.97202,1.22758 -1.02083,0 -2.42931,-0.37474 v -3.61811 h 1.88659 q 0.0646,1.65399 1.22757,1.65399 1.39556,0 2.5456,-2.36469 l -4.50972,-9.78183 q -0.68485,-1.48601 -1.09835,-2.02873 -0.40058,-0.54272 -1.02083,-0.58148 v -0.85284 h 6.88734 v 0.85284 q -0.99498,0.12921 -0.99498,0.98206 0,0.49103 0.68486,2.04165 l 2.20963,5.14289 2.11918,-5.0266 q 0.56856,-1.34387 0.56856,-2.11918 0,-0.96914 -1.0079,-1.02082 v -0.85284 h 5.11705 v 0.85284 q -0.72363,0.15506 -1.29219,0.8916 -0.55564,0.72363 -1.29218,2.13211 z"
           style=""
           id="path10355" />
        <path
           d="m 426.80655,414.8261 h -7.06824 v -0.85284 q 1.09835,-0.25844 1.33095,-0.76239 0.23259,-0.50395 0.23259,-1.8349 v -12.65048 h -2.85572 q -0.25844,2.99787 -0.99499,6.448 -0.72362,3.45013 -1.6023,5.81483 -0.87869,2.35177 -1.86075,3.20461 -0.98206,0.83992 -2.50683,0.83992 -1.17589,0 -2.14503,-0.31012 v -3.12709 h 1.654 q 0.1809,1.13712 0.98206,1.13712 0.63317,0 1.20173,-0.55563 0.56856,-0.56857 1.27926,-2.71359 0.7107,-2.15795 1.33095,-5.23334 0.62024,-3.08832 0.62024,-4.48388 0,-0.95622 -0.2972,-1.27926 -0.28428,-0.33597 -1.0079,-0.42642 v -0.85284 h 11.70718 v 0.85284 q -0.91745,0.23259 -1.21465,0.5944 -0.28428,0.36181 -0.28428,1.98996 v 10.75097 q 0,1.5377 0.27136,1.9512 0.27136,0.4135 1.22757,0.64609 z"
           style=""
           id="path10357" />
        <path
           d="m 441.59317,410.20008 q -1.17589,2.481 -2.32593,3.70857 -1.15005,1.22758 -2.97203,1.22758 -1.02082,0 -2.4293,-0.37474 v -3.61811 h 1.88659 q 0.0646,1.65399 1.22757,1.65399 1.39556,0 2.5456,-2.36469 l -4.50972,-9.78183 q -0.68485,-1.48601 -1.09835,-2.02873 -0.40058,-0.54272 -1.02083,-0.58148 v -0.85284 h 6.88734 v 0.85284 q -0.99498,0.12921 -0.99498,0.98206 0,0.49103 0.68486,2.04165 l 2.20963,5.14289 2.11918,-5.0266 q 0.56856,-1.34387 0.56856,-2.11918 0,-0.96914 -1.0079,-1.02082 v -0.85284 h 5.11705 v 0.85284 q -0.72363,0.15506 -1.29219,0.8916 -0.55564,0.72363 -1.29218,2.13211 z"
           style=""
           id="path10359" />
        <path
           d="m 468.3454,411.37597 q 0,1.61523 0.2972,2.00289 0.31012,0.37473 1.21465,0.5944 v 0.85284 h -7.00364 v -0.85284 q 0.9433,-0.23259 1.22758,-0.62025 0.28428,-0.38765 0.28428,-1.97704 V 407.073 q -2.06749,0.49103 -3.91532,0.49103 -2.18379,0 -3.54058,-0.95622 -1.35679,-0.95621 -1.35679,-3.72149 V 400.625 q 0,-1.67984 -0.2972,-2.0158 -0.29721,-0.34889 -1.15005,-0.58149 v -0.83991 h 6.93903 v 0.83991 q -0.89161,0.21968 -1.20173,0.58149 -0.31013,0.34889 -0.31013,2.0158 v 1.8349 q 0,2.22256 0.62025,2.81696 0.63317,0.58149 1.97704,0.58149 0.9433,0 2.23548,-0.32305 v -4.88445 q 0,-1.62815 -0.2972,-2.01581 -0.2972,-0.38765 -1.21466,-0.60733 v -0.83991 h 7.00364 v 0.83991 q -0.89161,0.21968 -1.20173,0.58149 -0.31012,0.34889 -0.31012,2.0158 z"
           style=""
           id="path10361" />
        <path
           d="m 476.65817,414.8261 v -0.85284 q 0.90453,-0.24551 1.13712,-0.65901 0.23259,-0.42642 0.23259,-1.75737 v -11.1257 q 0,-1.31803 -0.23259,-1.74445 -0.23259,-0.42642 -1.13712,-0.64609 v -0.85284 h 6.7452 v 0.85284 q -0.93038,0.21967 -1.15005,0.60732 -0.21967,0.37474 -0.21967,1.78322 v 12.76677 h 4.80692 v -12.76677 q 0,-1.27927 -0.24551,-1.71861 -0.23259,-0.45226 -1.15004,-0.67193 v -0.85284 h 6.78396 v 0.85284 q -0.90453,0.21967 -1.15004,0.64609 -0.2326,0.42642 -0.2326,1.74445 v 12.76677 h 4.80693 v -12.76677 q 0,-1.27927 -0.24552,-1.71861 -0.23259,-0.45226 -1.15004,-0.67193 v -0.85284 h 6.78396 v 0.85284 q -0.8916,0.21967 -1.13712,0.65901 -0.24551,0.42642 -0.24551,1.73153 v 11.13862 q 0,1.31803 0.21967,1.74445 0.23259,0.4135 1.16296,0.65901 v 0.85284 z"
           style=""
           id="path10363" />
        <path
           d="m 520.66105,397.1878 v 4.10914 h -1.77029 q -0.42642,-1.22758 -0.72362,-1.654 -0.2972,-0.43934 -0.7107,-0.68485 -0.4135,-0.25844 -1.40848,-0.25844 H 513.231 v 6.20248 h 1.70568 q 0.56856,0 0.89161,-0.15506 0.32304,-0.16798 0.52979,-0.54272 0.21967,-0.37473 0.4135,-1.16296 h 1.46017 v 5.24626 h -1.46017 q -0.1809,-0.74946 -0.40058,-1.13712 -0.21967,-0.40058 -0.52979,-0.56856 -0.2972,-0.16798 -0.90453,-0.16798 H 513.231 v 6.90026 h 2.80404 q 0.45226,0 0.76239,-0.0517 0.31012,-0.0646 0.55563,-0.20675 0.24552,-0.14214 0.46519,-0.38766 0.23259,-0.24551 0.40058,-0.52979 0.1809,-0.28428 0.37473,-0.74947 0.19383,-0.46518 0.42642,-1.27926 h 1.77029 l -0.24551,4.71647 h -12.70217 v -0.85284 q 0.47811,-0.12922 0.74947,-0.27136 0.28428,-0.15506 0.4135,-0.4135 0.14214,-0.27136 0.1809,-0.67193 0.0388,-0.4135 0.0388,-1.03375 V 400.4441 q 0,-0.60733 -0.0388,-1.02083 -0.0258,-0.4135 -0.16798,-0.67193 -0.12922,-0.25844 -0.4135,-0.4135 -0.27136,-0.16799 -0.76239,-0.2972 v -0.85284 z"
           style=""
           id="path10365" />
        <path
           d="m 542.6839,411.58272 q 0,0.99498 0.0775,1.36972 0.0905,0.36181 0.34889,0.60732 0.25844,0.24552 0.94329,0.4135 v 0.85284 h -6.7452 v -0.85284 q 0.74947,-0.19383 0.96914,-0.38765 0.21967,-0.19383 0.31013,-0.54272 0.0905,-0.36181 0.0905,-1.46017 v -5.18166 h -5.84067 v 5.18166 q 0,0.45226 0.0258,0.83992 0.0258,0.38766 0.10338,0.63317 0.0775,0.24551 0.21967,0.4135 0.15506,0.16798 0.4135,0.2972 0.25843,0.1163 0.63317,0.20675 v 0.85284 h -6.78397 v -0.85284 q 0.47811,-0.12922 0.74947,-0.27136 0.28428,-0.15506 0.4135,-0.4135 0.14214,-0.27136 0.1809,-0.67193 0.0388,-0.4135 0.0388,-1.03375 V 400.4441 q 0,-0.60733 -0.0388,-1.02083 -0.0258,-0.4135 -0.16798,-0.67193 -0.12922,-0.25844 -0.4135,-0.4135 -0.27136,-0.16799 -0.76239,-0.2972 v -0.85284 h 6.78397 v 0.85284 q -0.68486,0.19382 -0.9433,0.42642 -0.24551,0.23259 -0.34889,0.62024 -0.10337,0.37474 -0.10337,1.36972 v 4.31589 h 5.84067 v -4.31589 q 0,-0.98206 -0.0905,-1.35679 -0.0775,-0.38766 -0.33597,-0.62025 -0.24552,-0.24552 -0.9433,-0.43934 v -0.85284 h 6.7452 v 0.85284 q -0.56856,0.15506 -0.82699,0.33596 -0.25844,0.16799 -0.37474,0.43935 -0.10337,0.27135 -0.14214,0.60732 -0.0258,0.33597 -0.0258,1.03375 z"
           style=""
           id="path10367" />
        <path
           d="m 566.37366,411.58272 q 0,1.30511 0.21967,1.74445 0.23259,0.42642 1.15004,0.64609 v 0.85284 h -6.7452 v -0.85284 q 0.93037,-0.21967 1.15004,-0.5944 0.21968,-0.38766 0.21968,-1.79614 v -5.05244 q 0,-2.28716 0.11629,-3.47597 h -0.0775 l -6.13787,8.52841 q 0,1.27926 0.23259,1.73153 0.24552,0.43934 1.16297,0.65901 v 0.85284 h -6.78397 v -0.85284 q 0.89161,-0.21967 1.13713,-0.64609 0.24551,-0.43934 0.24551,-1.74445 V 400.4441 q 0,-1.33095 -0.23259,-1.74445 -0.2326,-0.4135 -1.15005,-0.65901 v -0.85284 h 6.78397 v 0.85284 q -0.91745,0.25843 -1.16297,0.68485 -0.23259,0.42642 -0.23259,1.73153 v 5.68561 q 0,1.61523 -0.0905,2.5456 h 0.0775 l 6.11203,-8.54133 q 0,-1.08544 -0.2326,-1.47309 -0.23259,-0.40058 -1.13712,-0.63317 v -0.85284 h 6.7452 v 0.85284 q -0.90453,0.24551 -1.13712,0.67193 -0.23259,0.4135 -0.23259,1.74445 z"
           style=""
           id="path10369" />
        <path
           d="m 583.12439,413.97326 q 0.91745,-0.21967 1.15004,-0.64609 0.24552,-0.43934 0.24552,-1.74445 v -4.16083 h -0.62025 q -1.31803,0 -2.0675,0.5944 -0.74946,0.58149 -1.52477,2.70067 -0.9433,2.59729 -1.4214,3.46305 v 0.64609 h -5.28504 v -0.85284 q 1.30511,-0.20675 2.23548,-2.48099 l 0.63317,-1.5377 q 0.89161,-2.17087 3.01079,-3.0754 v -0.12922 q -3.6698,-1.4214 -3.6698,-4.80692 0,-4.75523 6.56429,-4.75523 h 7.53343 v 0.85284 q -0.93037,0.24551 -1.16296,0.67193 -0.21967,0.4135 -0.21967,1.73153 v 11.13862 q 0,1.30511 0.23259,1.74445 0.24551,0.42642 1.15004,0.64609 v 0.85284 h -6.78396 z m 1.39556,-8.06323 v -7.18454 l -0.67194,-0.0258 q -2.45515,-0.0905 -3.26922,0.87868 -0.80116,0.96914 -0.80116,2.63606 0,1.9512 0.85284,2.82988 0.85284,0.86576 2.61021,0.86576 z"
           style=""
           id="path10371" />
      </g>
    </g>
  </g>
</svg>
