<?xml version="1.0" encoding="UTF-8" standalone="no"?>
<!-- Created with Inkscape (http://www.inkscape.org/) -->

<svg
   xmlns:dc="http://purl.org/dc/elements/1.1/"
   xmlns:cc="http://creativecommons.org/ns#"
   xmlns:rdf="http://www.w3.org/1999/02/22-rdf-syntax-ns#"
   xmlns:svg="http://www.w3.org/2000/svg"
   xmlns="http://www.w3.org/2000/svg"
   xmlns:xlink="http://www.w3.org/1999/xlink"
   xmlns:sodipodi="http://sodipodi.sourceforge.net/DTD/sodipodi-0.dtd"
   xmlns:inkscape="http://www.inkscape.org/namespaces/inkscape"
   width="20px"
   height="20px"
   viewBox="0 0 20 20"
   version="1.1"
   id="SVGRoot"
   inkscape:version="0.92.0 r15299"
   sodipodi:docname="иконка автоматов.svg">
  <sodipodi:namedview
     id="base"
     pagecolor="#ffffff"
     bordercolor="#666666"
     borderopacity="1.0"
     inkscape:pageopacity="0.0"
     inkscape:pageshadow="2"
     inkscape:zoom="51.200001"
     inkscape:cx="9.6697762"
     inkscape:cy="10.422338"
     inkscape:document-units="px"
     inkscape:current-layer="layer1"
     showgrid="false"
     inkscape:window-width="1920"
     inkscape:window-height="1017"
     inkscape:window-x="-8"
     inkscape:window-y="-8"
     inkscape:window-maximized="1"
     inkscape:grid-bbox="true"
     inkscape:pagecheckerboard="true" />
  <defs
     id="defs1270" />
  <metadata
     id="metadata1273">
    <rdf:RDF>
      <cc:Work
         rdf:about="">
        <dc:format>image/svg+xml</dc:format>
        <dc:type
           rdf:resource="http://purl.org/dc/dcmitype/StillImage" />
        <dc:title></dc:title>
      </cc:Work>
    </rdf:RDF>
  </metadata>
  <g
     id="layer1"
     inkscape:groupmode="layer"
     inkscape:label="Layer 1">
    <path
       inkscape:href="#rect3988"
       transform="matrix(0.24608466,0,0,0.19922604,-15.571277,-16.358133)"
       d="m 69.089844,112.44727 a 5.7513871,5.7513871 0 0 0 -5.75,5.75 v 1 1 22.1875 a 5.7513871,5.7513871 0 0 0 5.75,5.75 h 69.623046 a 5.7513871,5.7513871 0 0 0 5.75,-5.75 v -24.1875 a 5.7513871,5.7513871 0 0 0 -5.75,-5.75 z"
       id="path3994"
       style="fill:#ff922f;fill-opacity:1;stroke-width:0.26458332"
       xlink:href="#rect3988"
       inkscape:original="M 69.089844 118.19727 L 69.089844 119.19727 L 69.089844 120.19727 L 69.089844 142.38477 L 138.71289 142.38477 L 138.71289 118.19727 L 69.089844 118.19727 z "
       inkscape:radius="5.7508121"
       sodipodi:type="inkscape:offset" />
    <g
       aria-label="АВТОМАТЫ"
       transform="matrix(0.08279754,0,0,0.08707954,-29.800113,-25.760633)"
       style="font-style:normal;font-variant:normal;font-weight:bold;font-stretch:normal;font-size:26.46392059px;line-height:23.51746559px;font-family:Cambria;-inkscape-font-specification:'Cambria Bold';letter-spacing:4.30700302px;word-spacing:0px;fill:#cc4d00;fill-opacity:1;stroke:none"
       id="flowRoot3996">
      <path
         d="m 402.87128,409.36016 h -5.51762 l -0.42642,1.22758 q -0.18091,0.51687 -0.29721,1.0079 -0.11629,0.47811 -0.11629,1.02083 0,1.26634 1.34387,1.35679 v 0.85284 h -5.51763 v -0.85284 q 0.47811,-0.0517 0.83992,-0.33597 0.36182,-0.28428 0.65902,-0.77531 0.2972,-0.49103 0.63317,-1.40848 l 5.3884,-14.35616 h 3.45013 l 4.26421,14.47246 q 0.28428,0.96914 0.47811,1.38264 0.19383,0.40057 0.50395,0.65901 0.31012,0.24551 0.86576,0.36181 v 0.85284 h -7.13285 v -0.85284 q 0.67193,-0.0775 0.99498,-0.37473 0.32305,-0.29721 0.32305,-0.83992 0,-0.40058 -0.0905,-0.89161 -0.0905,-0.49103 -0.2972,-1.2405 z m -5.02659,-1.51185 h 4.65186 l -2.0675,-7.27499 z"
         id="path10105"
         style="" />
      <path
         d="m 426.38013,405.58699 q 1.80906,0.56856 2.75235,1.65399 0.95622,1.07252 0.95622,2.58437 0,1.29218 -0.43934,2.2484 -0.42642,0.95622 -1.31803,1.57646 -0.87869,0.60733 -2.08042,0.89161 -1.1888,0.28428 -3.03663,0.28428 h -7.95985 v -0.85284 q 0.47811,-0.12922 0.74947,-0.27136 0.28428,-0.15506 0.4135,-0.4135 0.14214,-0.27136 0.1809,-0.67193 0.0388,-0.4135 0.0388,-1.03375 V 400.4441 q 0,-0.60733 -0.0388,-1.02083 -0.0258,-0.4135 -0.16798,-0.67193 -0.12922,-0.25844 -0.4135,-0.4135 -0.27136,-0.16799 -0.76239,-0.2972 v -0.85284 h 8.4638 q 1.44725,0 2.3647,0.14214 1.21465,0.19382 2.10626,0.67193 0.80115,0.42642 1.25342,1.21465 0.45226,0.78824 0.45226,1.87367 0,2.92033 -3.51474,4.3805 z m -4.01869,-0.67194 q 1.29218,0 2.02873,-0.37473 0.73654,-0.37473 1.11128,-1.05959 0.38765,-0.69778 0.38765,-1.91243 0,-1.07251 -0.4135,-1.69276 -0.41349,-0.63317 -1.17588,-0.90453 -0.76239,-0.27136 -1.89951,-0.27136 -0.90453,0 -1.75737,0.0646 v 6.15079 z m -1.7186,8.36043 q 0.76239,0.0388 1.75737,0.0388 1.22757,0 2.0158,-0.29721 0.80116,-0.31012 1.2405,-1.05959 0.43934,-0.76238 0.43934,-2.08041 0,-0.93037 -0.23259,-1.58939 -0.23259,-0.67193 -0.69778,-1.07251 -0.46519,-0.4135 -1.11128,-0.5944 -0.64609,-0.19383 -1.61523,-0.19383 h -1.79613 z"
         id="path10107"
         style="" />
      <path
         d="m 440.32683,414.8261 v -0.85284 q 0.54271,-0.0904 0.85284,-0.23259 0.32304,-0.15506 0.47811,-0.42642 0.15506,-0.27136 0.19382,-0.68486 0.0388,-0.42642 0.0388,-1.04667 v -12.88307 h -1.04667 q -0.77531,0 -1.18881,0.18091 -0.4135,0.1809 -0.72362,0.56856 -0.2972,0.38765 -0.51687,1.04667 -0.21968,0.64609 -0.36182,1.22757 h -1.77029 v -4.53556 h 15.209 v 4.53556 H 449.721 q -0.24551,-0.87869 -0.38765,-1.29218 -0.14214,-0.4135 -0.32305,-0.69778 -0.16798,-0.29721 -0.36181,-0.49103 -0.19383,-0.19383 -0.4135,-0.31013 -0.21967,-0.11629 -0.55564,-0.16798 -0.32304,-0.0646 -0.85284,-0.0646 h -0.93037 v 12.88307 q 0,0.68486 0.0388,1.04667 0.0388,0.34889 0.14214,0.56856 0.10338,0.21967 0.24552,0.36181 0.15506,0.12922 0.4135,0.24552 0.27136,0.10337 0.72362,0.16798 v 0.85284 z"
         style=""
         id="path10109" />
      <path
         d="m 464.89527,415.03285 q -3.79902,0 -5.71146,-2.22255 -1.89951,-2.22256 -1.89951,-6.65475 0,-2.90741 0.91745,-4.96199 0.93038,-2.06749 2.72651,-3.14 1.79614,-1.07251 4.27713,-1.07251 3.86363,0 5.8019,2.22255 1.93828,2.20964 1.93828,6.57722 0,2.44222 -0.58148,4.19959 -0.56856,1.74445 -1.62815,2.86865 -1.0596,1.1242 -2.54561,1.654 -1.47309,0.52979 -3.29506,0.52979 z m -3.50182,-9.22619 q 0,3.90239 0.93037,5.81483 0.94329,1.89951 2.86865,1.89951 0.99498,0 1.69276,-0.5298 0.69778,-0.54272 1.1242,-1.49893 0.43934,-0.96914 0.62025,-2.28717 0.19382,-1.31802 0.19382,-2.89449 0,-2.57144 -0.4135,-4.30297 -0.40057,-1.74445 -1.22757,-2.62313 -0.81408,-0.89161 -2.09334,-0.89161 -1.87366,0 -2.79111,1.79614 -0.90453,1.78321 -0.90453,5.51762 z"
         style=""
         id="path10111" />
      <path
         d="m 499.76241,398.04064 q -0.68486,0.19382 -0.93037,0.42642 -0.24552,0.21967 -0.34889,0.60732 -0.0905,0.37474 -0.0905,1.34387 v 11.17739 q 0,0.78823 0.0775,1.25342 0.0775,0.45226 0.31013,0.69778 0.24551,0.23259 0.98206,0.42642 v 0.85284 h -6.6289 v -0.85284 q 0.56856,-0.15506 0.78823,-0.27136 0.21967,-0.11629 0.33597,-0.2972 0.12921,-0.19383 0.1809,-0.56856 0.0646,-0.38766 0.0646,-1.26634 v -6.3317 q 0,-1.04667 0.0388,-2.46807 0.0388,-1.4214 0.0775,-2.01581 h -0.27136 q -0.15506,0.51688 -0.33597,1.02083 -0.16798,0.49103 -0.64609,1.77029 l -3.46305,9.32956 h -2.27425 l -3.64395,-10.4796 q -0.32305,-0.89161 -0.56856,-1.7703 h -0.2326 q 0.12922,2.13211 0.12922,5.03952 v 5.94404 q 0,0.95622 0.0905,1.33095 0.0905,0.37474 0.36181,0.62025 0.27136,0.24552 0.9433,0.4135 v 0.85284 h -4.88446 v -0.85284 q 0.47811,-0.12922 0.74947,-0.28428 0.28428,-0.15506 0.42642,-0.4135 0.14214,-0.25844 0.16799,-0.65901 0.0388,-0.40058 0.0388,-1.02083 v -11.17739 q 0,-0.98206 -0.0905,-1.34387 -0.0775,-0.36181 -0.32305,-0.5944 -0.24551,-0.23259 -0.96914,-0.43934 v -0.85284 h 6.42216 l 3.57935,10.60882 3.87655,-10.60882 h 6.06034 z"
         style=""
         id="path10113" />
      <path
         d="m 515.73784,409.36016 h -5.51763 l -0.42642,1.22758 q -0.1809,0.51687 -0.2972,1.0079 -0.1163,0.47811 -0.1163,1.02083 0,1.26634 1.34387,1.35679 v 0.85284 h -5.51762 v -0.85284 q 0.47811,-0.0517 0.83992,-0.33597 0.36181,-0.28428 0.65901,-0.77531 0.2972,-0.49103 0.63317,-1.40848 l 5.38841,-14.35616 h 3.45013 l 4.2642,14.47246 q 0.28428,0.96914 0.47811,1.38264 0.19383,0.40057 0.50395,0.65901 0.31013,0.24551 0.86577,0.36181 v 0.85284 h -7.13286 v -0.85284 q 0.67194,-0.0775 0.99498,-0.37473 0.32305,-0.29721 0.32305,-0.83992 0,-0.40058 -0.0905,-0.89161 -0.0905,-0.49103 -0.2972,-1.2405 z m -5.0266,-1.51185 h 4.65186 l -2.06749,-7.27499 z"
         style=""
         id="path10115" />
      <path
         d="m 529.65868,414.8261 v -0.85284 q 0.54272,-0.0904 0.85284,-0.23259 0.32305,-0.15506 0.47811,-0.42642 0.15506,-0.27136 0.19383,-0.68486 0.0388,-0.42642 0.0388,-1.04667 v -12.88307 h -1.04666 q -0.77531,0 -1.18881,0.18091 -0.4135,0.1809 -0.72363,0.56856 -0.2972,0.38765 -0.51687,1.04667 -0.21967,0.64609 -0.36181,1.22757 h -1.77029 v -4.53556 h 15.209 v 4.53556 h -1.77029 q -0.24552,-0.87869 -0.38766,-1.29218 -0.14214,-0.4135 -0.32304,-0.69778 -0.16799,-0.29721 -0.36181,-0.49103 -0.19383,-0.19383 -0.4135,-0.31013 -0.21967,-0.11629 -0.55564,-0.16798 -0.32305,-0.0646 -0.85284,-0.0646 h -0.93038 v 12.88307 q 0,0.68486 0.0388,1.04667 0.0388,0.34889 0.14214,0.56856 0.10337,0.21967 0.24551,0.36181 0.15507,0.12922 0.4135,0.24552 0.27136,0.10337 0.72363,0.16798 v 0.85284 z"
         style=""
         id="path10117" />
      <path
         d="m 554.17544,397.1878 v 0.85284 q -0.99498,0.15506 -1.29218,0.60732 -0.28428,0.45227 -0.28428,1.79614 v 4.23836 q 1.7186,-0.16798 2.85573,-0.16798 3.24338,0 4.78107,1.26634 1.55063,1.25341 1.55063,3.91531 0,5.12997 -6.7452,5.12997 h -7.83064 v -0.85284 q 0.89161,-0.21967 1.13713,-0.64609 0.24551,-0.43934 0.24551,-1.74445 V 400.4441 q 0,-1.33095 -0.23259,-1.74445 -0.2326,-0.4135 -1.15005,-0.65901 v -0.85284 z m -1.57646,9.0582 v 7.02948 q 3.14001,0.23259 4.16083,-0.69778 1.03375,-0.93037 1.03375,-2.82988 0,-1.69276 -0.80116,-2.63605 -0.78823,-0.9433 -2.88157,-0.9433 -0.68485,0 -1.51185,0.0775 z m 15.60958,-5.8019 v 11.13862 q 0,1.29218 0.24551,1.73153 0.24552,0.43934 1.15005,0.65901 v 0.85284 h -6.78397 v -0.85284 q 0.90453,-0.21967 1.13712,-0.64609 0.24552,-0.43934 0.24552,-1.74445 v -11.15154 q 0,-1.31803 -0.23259,-1.73153 -0.2326,-0.4135 -1.15005,-0.65901 v -0.85284 h 6.78397 v 0.85284 q -0.91745,0.25843 -1.16297,0.68485 -0.23259,0.4135 -0.23259,1.71861 z"
         style=""
         id="path10119" />
    </g>
  </g>
</svg>
