<?xml version="1.0" encoding="UTF-8" standalone="no"?>
<!-- Created with Inkscape (http://www.inkscape.org/) -->

<svg
   xmlns:dc="http://purl.org/dc/elements/1.1/"
   xmlns:cc="http://creativecommons.org/ns#"
   xmlns:rdf="http://www.w3.org/1999/02/22-rdf-syntax-ns#"
   xmlns:svg="http://www.w3.org/2000/svg"
   xmlns="http://www.w3.org/2000/svg"
   xmlns:xlink="http://www.w3.org/1999/xlink"
   xmlns:sodipodi="http://sodipodi.sourceforge.net/DTD/sodipodi-0.dtd"
   xmlns:inkscape="http://www.inkscape.org/namespaces/inkscape"
   width="20px"
   height="20px"
   viewBox="0 0 20 20"
   version="1.1"
   id="SVGRoot"
   inkscape:version="0.92.0 r15299"
   sodipodi:docname="knopka_pererabotka.svg">
  <sodipodi:namedview
     id="base"
     pagecolor="#ffffff"
     bordercolor="#666666"
     borderopacity="1.0"
     inkscape:pageopacity="0.0"
     inkscape:pageshadow="2"
     inkscape:zoom="25.600001"
     inkscape:cx="-1.8833248"
     inkscape:cy="2.0525075"
     inkscape:document-units="px"
     inkscape:current-layer="layer1"
     showgrid="false"
     inkscape:window-width="1920"
     inkscape:window-height="1017"
     inkscape:window-x="-8"
     inkscape:window-y="-8"
     inkscape:window-maximized="1"
     inkscape:grid-bbox="true"
     inkscape:pagecheckerboard="true" />
  <defs
     id="defs1270" />
  <metadata
     id="metadata1273">
    <rdf:RDF>
      <cc:Work
         rdf:about="">
        <dc:format>image/svg+xml</dc:format>
        <dc:type
           rdf:resource="http://purl.org/dc/dcmitype/StillImage" />
        <dc:title></dc:title>
      </cc:Work>
    </rdf:RDF>
  </metadata>
  <g
     id="layer1"
     inkscape:groupmode="layer"
     inkscape:label="Layer 1">
    <path
       sodipodi:type="inkscape:offset"
       inkscape:radius="5.7508121"
       inkscape:original="M 69.089844 118.19727 L 69.089844 119.19727 L 69.089844 120.19727 L 69.089844 142.38477 L 138.71289 142.38477 L 138.71289 118.19727 L 69.089844 118.19727 z "
       xlink:href="#rect3988"
       style="fill:#ff922f;fill-opacity:1;stroke-width:0.26458332"
       id="path3994-2"
       d="m 69.089844,112.44727 a 5.7513871,5.7513871 0 0 0 -5.75,5.75 v 1 1 22.1875 a 5.7513871,5.7513871 0 0 0 5.75,5.75 h 69.623046 a 5.7513871,5.7513871 0 0 0 5.75,-5.75 v -24.1875 a 5.7513871,5.7513871 0 0 0 -5.75,-5.75 z"
       transform="matrix(0.24615434,0,0,0.19722796,-15.535956,-16.138743)"
       inkscape:href="#rect3988" />
    <g
       aria-label="ПЕРЕРАБОТКА"
       transform="matrix(0.08282099,0,0,0.08620621,-29.465681,-25.568263)"
       style="font-style:normal;font-variant:normal;font-weight:bold;font-stretch:normal;font-size:26.46392059px;line-height:23.51746559px;font-family:Cambria;-inkscape-font-specification:'Cambria Bold';letter-spacing:4.30700302px;word-spacing:0px;fill:#cc4d00;fill-opacity:1;stroke:none"
       id="flowRoot3996-9">
      <path
         d="m 382.65857,398.04064 q -0.90453,0.24551 -1.13712,0.67193 -0.23259,0.4135 -0.23259,1.74445 v 11.1257 q 0,1.30511 0.21967,1.74445 0.23259,0.42642 1.15004,0.64609 v 0.85284 h -6.7452 v -0.85284 q 0.93038,-0.21967 1.15005,-0.5944 0.21967,-0.38766 0.21967,-1.79614 v -12.76677 h -5.45302 v 12.76677 q 0,1.27926 0.2326,1.73153 0.24551,0.43934 1.16296,0.65901 v 0.85284 h -6.78396 v -0.85284 q 0.8916,-0.21967 1.13712,-0.64609 0.24551,-0.43934 0.24551,-1.74445 V 400.4441 q 0,-1.33095 -0.23259,-1.74445 -0.23259,-0.4135 -1.15004,-0.65901 v -0.85284 h 16.2169 z"
         style=""
         id="path10332" />
      <path
         d="m 402.27795,397.1878 v 4.10914 h -1.77029 q -0.42642,-1.22758 -0.72362,-1.654 -0.2972,-0.43934 -0.7107,-0.68485 -0.4135,-0.25844 -1.40848,-0.25844 h -2.81696 v 6.20248 h 1.70568 q 0.56856,0 0.89161,-0.15506 0.32304,-0.16798 0.52979,-0.54272 0.21967,-0.37473 0.4135,-1.16296 h 1.46017 v 5.24626 h -1.46017 q -0.18091,-0.74946 -0.40058,-1.13712 -0.21967,-0.40058 -0.52979,-0.56856 -0.29721,-0.16798 -0.90453,-0.16798 h -1.70568 v 6.90026 h 2.80403 q 0.45227,0 0.76239,-0.0517 0.31013,-0.0646 0.55564,-0.20675 0.24552,-0.14214 0.46519,-0.38766 0.23259,-0.24551 0.40057,-0.52979 0.18091,-0.28428 0.37474,-0.74947 0.19383,-0.46518 0.42642,-1.27926 h 1.77029 l -0.24551,4.71647 h -12.70217 v -0.85284 q 0.47811,-0.12922 0.74947,-0.27136 0.28428,-0.15506 0.4135,-0.4135 0.14214,-0.27136 0.1809,-0.67193 0.0388,-0.4135 0.0388,-1.03375 V 400.4441 q 0,-0.60733 -0.0388,-1.02083 -0.0258,-0.4135 -0.16798,-0.67193 -0.12922,-0.25844 -0.4135,-0.4135 -0.27136,-0.16799 -0.76239,-0.2972 v -0.85284 z"
         style=""
         id="path10334" />
      <path
         d="m 414.45435,411.59564 q 0,0.85284 0.0646,1.21466 0.0646,0.34888 0.20675,0.56856 0.15506,0.20675 0.42642,0.34889 0.28428,0.14214 0.86577,0.24551 v 0.85284 h -6.95195 v -0.85284 q 0.47811,-0.12922 0.74946,-0.27136 0.28428,-0.15506 0.4135,-0.4135 0.14214,-0.27136 0.18091,-0.67193 0.0388,-0.4135 0.0388,-1.03375 V 400.4441 q 0,-0.60733 -0.0388,-1.02083 -0.0259,-0.4135 -0.16799,-0.67193 -0.12921,-0.25844 -0.41349,-0.4135 -0.27136,-0.16799 -0.76239,-0.2972 v -0.85284 h 7.50758 q 3.26923,0 4.89738,1.17588 1.62815,1.16297 1.62815,3.59227 0,1.71861 -0.76239,2.98495 -0.76239,1.26634 -2.20963,1.92535 -1.44725,0.64609 -3.61812,0.64609 -1.25341,0 -2.05457,-0.0517 z m 0,-5.59515 h 1.11128 q 1.29218,0 2.05457,-0.36181 0.76239,-0.37474 1.1242,-1.17589 0.37474,-0.80115 0.37474,-2.15795 0,-1.34387 -0.37474,-2.1321 -0.36181,-0.80115 -1.07251,-1.13712 -0.7107,-0.33597 -1.82198,-0.33597 -0.90453,0 -1.39556,0.0258 z"
         style=""
         id="path10336" />
      <path
         d="m 442.42124,397.1878 v 4.10914 h -1.77029 q -0.42642,-1.22758 -0.72362,-1.654 -0.29721,-0.43934 -0.71071,-0.68485 -0.41349,-0.25844 -1.40848,-0.25844 h -2.81696 v 6.20248 h 1.70569 q 0.56856,0 0.8916,-0.15506 0.32305,-0.16798 0.5298,-0.54272 0.21967,-0.37473 0.4135,-1.16296 h 1.46016 v 5.24626 h -1.46016 q -0.18091,-0.74946 -0.40058,-1.13712 -0.21967,-0.40058 -0.5298,-0.56856 -0.2972,-0.16798 -0.90452,-0.16798 h -1.70569 v 6.90026 h 2.80404 q 0.45227,0 0.76239,-0.0517 0.31012,-0.0646 0.55564,-0.20675 0.24551,-0.14214 0.46519,-0.38766 0.23259,-0.24551 0.40057,-0.52979 0.18091,-0.28428 0.37474,-0.74947 0.19382,-0.46518 0.42642,-1.27926 h 1.77029 l -0.24552,4.71647 h -12.70216 v -0.85284 q 0.47811,-0.12922 0.74946,-0.27136 0.28428,-0.15506 0.4135,-0.4135 0.14214,-0.27136 0.18091,-0.67193 0.0388,-0.4135 0.0388,-1.03375 V 400.4441 q 0,-0.60733 -0.0388,-1.02083 -0.0258,-0.4135 -0.16798,-0.67193 -0.12922,-0.25844 -0.4135,-0.4135 -0.27136,-0.16799 -0.76239,-0.2972 v -0.85284 z"
         style=""
         id="path10338" />
      <path
         d="m 454.59764,411.59564 q 0,0.85284 0.0646,1.21466 0.0646,0.34888 0.20675,0.56856 0.15506,0.20675 0.42642,0.34889 0.28428,0.14214 0.86576,0.24551 v 0.85284 h -6.95195 v -0.85284 q 0.47811,-0.12922 0.74947,-0.27136 0.28428,-0.15506 0.4135,-0.4135 0.14214,-0.27136 0.1809,-0.67193 0.0388,-0.4135 0.0388,-1.03375 V 400.4441 q 0,-0.60733 -0.0388,-1.02083 -0.0258,-0.4135 -0.16798,-0.67193 -0.12922,-0.25844 -0.4135,-0.4135 -0.27136,-0.16799 -0.76239,-0.2972 v -0.85284 h 7.50759 q 3.26922,0 4.89737,1.17588 1.62816,1.16297 1.62816,3.59227 0,1.71861 -0.76239,2.98495 -0.76239,1.26634 -2.20964,1.92535 -1.44724,0.64609 -3.61811,0.64609 -1.25342,0 -2.05457,-0.0517 z m 0,-5.59515 h 1.11127 q 1.29219,0 2.05458,-0.36181 0.76238,-0.37474 1.1242,-1.17589 0.37473,-0.80115 0.37473,-2.15795 0,-1.34387 -0.37473,-2.1321 -0.36182,-0.80115 -1.07252,-1.13712 -0.7107,-0.33597 -1.82197,-0.33597 -0.90453,0 -1.39556,0.0258 z"
         style=""
         id="path10340" />
      <path
         d="m 476.50419,409.36016 h -5.51763 l -0.42642,1.22758 q -0.18091,0.51687 -0.2972,1.0079 -0.1163,0.47811 -0.1163,1.02083 0,1.26634 1.34387,1.35679 v 0.85284 h -5.51762 v -0.85284 q 0.47811,-0.0517 0.83992,-0.33597 0.36181,-0.28428 0.65901,-0.77531 0.2972,-0.49103 0.63317,-1.40848 l 5.38841,-14.35616 h 3.45013 l 4.2642,14.47246 q 0.28428,0.96914 0.47811,1.38264 0.19383,0.40057 0.50395,0.65901 0.31013,0.24551 0.86577,0.36181 v 0.85284 h -7.13286 v -0.85284 q 0.67194,-0.0775 0.99498,-0.37473 0.32305,-0.29721 0.32305,-0.83992 0,-0.40058 -0.0904,-0.89161 -0.0905,-0.49103 -0.29721,-1.2405 z m -5.0266,-1.51185 h 4.65186 l -2.06749,-7.27499 z"
         style=""
         id="path10342" />
      <path
         d="m 488.88733,414.8261 v -0.85284 q 0.89161,-0.21967 1.13712,-0.64609 0.24552,-0.43934 0.24552,-1.74445 V 400.4441 q 0,-1.33095 -0.23259,-1.74445 -0.2326,-0.4135 -1.15005,-0.65901 v -0.85284 h 13.6067 v 4.36758 h -1.7703 q -0.58148,-1.80906 -1.13712,-2.31301 -0.54272,-0.50395 -1.70568,-0.50395 h -3.60519 v 5.94404 q 1.75737,-0.16798 2.98494,-0.16798 3.24338,0 4.84569,1.24049 1.61523,1.2405 1.61523,3.94116 0,5.12997 -6.87442,5.12997 z m 5.38841,-1.55062 q 3.35967,0.21967 4.40634,-0.67193 1.04667,-0.90453 1.04667,-2.85573 0,-3.57935 -3.52766,-3.57935 h -0.45226 q -0.90453,0 -1.47309,0.0775 z"
         style=""
         id="path10344" />
      <path
         d="m 517.62953,415.03285 q -3.79902,0 -5.71146,-2.22255 -1.89951,-2.22256 -1.89951,-6.65475 0,-2.90741 0.91745,-4.96199 0.93038,-2.06749 2.72651,-3.14 1.79614,-1.07251 4.27713,-1.07251 3.86363,0 5.8019,2.22255 1.93828,2.20964 1.93828,6.57722 0,2.44222 -0.58148,4.19959 -0.56856,1.74445 -1.62815,2.86865 -1.05959,1.1242 -2.54561,1.654 -1.47309,0.52979 -3.29506,0.52979 z m -3.50182,-9.22619 q 0,3.90239 0.93037,5.81483 0.94329,1.89951 2.86865,1.89951 0.99498,0 1.69276,-0.5298 0.69778,-0.54272 1.1242,-1.49893 0.43934,-0.96914 0.62025,-2.28717 0.19382,-1.31802 0.19382,-2.89449 0,-2.57144 -0.41349,-4.30297 -0.40058,-1.74445 -1.22758,-2.62313 -0.81408,-0.89161 -2.09334,-0.89161 -1.87366,0 -2.79111,1.79614 -0.90453,1.78321 -0.90453,5.51762 z"
         style=""
         id="path10346" />
      <path
         d="m 535.63367,414.8261 v -0.85284 q 0.54272,-0.0904 0.85284,-0.23259 0.32305,-0.15506 0.47811,-0.42642 0.15506,-0.27136 0.19383,-0.68486 0.0388,-0.42642 0.0388,-1.04667 v -12.88307 h -1.04667 q -0.77531,0 -1.18881,0.18091 -0.4135,0.1809 -0.72362,0.56856 -0.29721,0.38765 -0.51688,1.04667 -0.21967,0.64609 -0.36181,1.22757 h -1.77029 v -4.53556 h 15.209 v 4.53556 h -1.77029 q -0.24552,-0.87869 -0.38766,-1.29218 -0.14214,-0.4135 -0.32304,-0.69778 -0.16799,-0.29721 -0.36181,-0.49103 -0.19383,-0.19383 -0.4135,-0.31013 -0.21967,-0.11629 -0.55564,-0.16798 -0.32305,-0.0646 -0.85284,-0.0646 h -0.93038 v 12.88307 q 0,0.68486 0.0388,1.04667 0.0388,0.34889 0.14214,0.56856 0.10338,0.21967 0.24552,0.36181 0.15506,0.12922 0.41349,0.24552 0.27136,0.10337 0.72363,0.16798 v 0.85284 z"
         style=""
         id="path10348" />
      <path
         d="m 563.92361,414.8261 v -0.64609 q -0.18091,-0.4135 -0.94329,-2.5456 -0.89161,-2.51976 -1.31803,-3.42429 -0.42642,-0.91745 -1.04667,-1.33095 -0.62025,-0.42642 -1.78321,-0.42642 h -0.25844 v 5.12997 q 0,1.27926 0.23259,1.73153 0.24552,0.43934 1.16297,0.65901 v 0.85284 h -6.78397 v -0.85284 q 0.89161,-0.21967 1.13713,-0.64609 0.24551,-0.43934 0.24551,-1.74445 V 400.4441 q 0,-1.33095 -0.23259,-1.74445 -0.23259,-0.4135 -1.15005,-0.65901 v -0.85284 h 6.78397 v 0.85284 q -0.90453,0.24551 -1.15004,0.67193 -0.24552,0.42642 -0.24552,1.73153 v 4.60017 h 0.27136 q 1.56354,0 2.37762,-0.90453 0.82699,-0.91745 1.38263,-2.57144 0.67194,-2.02873 1.22758,-2.86865 0.56856,-0.83992 1.4214,-1.27926 0.85284,-0.43934 2.22256,-0.43934 1.05959,0 1.86074,0.2972 v 3.19169 h -1.82198 q -0.14214,-1.17589 -1.03375,-1.17589 -0.67193,0 -1.15004,0.71071 -0.46519,0.7107 -0.98206,2.02872 -0.827,2.18379 -2.30009,2.99787 v 0.12922 q 1.34388,0.15506 2.14503,0.69778 0.81407,0.52979 1.2405,1.26634 0.43934,0.73654 1.34387,2.90741 1.07251,2.59729 1.47309,3.20462 0.41349,0.60732 1.33094,0.73654 v 0.85284 z"
         style=""
         id="path10350" />
      <path
         d="m 584.51212,409.36016 h -5.51762 l -0.42642,1.22758 q -0.18091,0.51687 -0.29721,1.0079 -0.11629,0.47811 -0.11629,1.02083 0,1.26634 1.34387,1.35679 v 0.85284 h -5.51763 v -0.85284 q 0.47811,-0.0517 0.83992,-0.33597 0.36181,-0.28428 0.65902,-0.77531 0.2972,-0.49103 0.63317,-1.40848 l 5.3884,-14.35616 h 3.45013 l 4.26421,14.47246 q 0.28428,0.96914 0.47811,1.38264 0.19382,0.40057 0.50395,0.65901 0.31012,0.24551 0.86576,0.36181 v 0.85284 h -7.13285 v -0.85284 q 0.67193,-0.0775 0.99498,-0.37473 0.32304,-0.29721 0.32304,-0.83992 0,-0.40058 -0.0904,-0.89161 -0.0905,-0.49103 -0.2972,-1.2405 z m -5.02659,-1.51185 h 4.65186 l -2.0675,-7.27499 z"
         style=""
         id="path10352" />
    </g>
  </g>
</svg>
