<?xml version="1.0" encoding="UTF-8" standalone="no"?>
<!-- Created with Inkscape (http://www.inkscape.org/) -->

<svg
   xmlns:dc="http://purl.org/dc/elements/1.1/"
   xmlns:cc="http://creativecommons.org/ns#"
   xmlns:rdf="http://www.w3.org/1999/02/22-rdf-syntax-ns#"
   xmlns:svg="http://www.w3.org/2000/svg"
   xmlns="http://www.w3.org/2000/svg"
   xmlns:xlink="http://www.w3.org/1999/xlink"
   xmlns:sodipodi="http://sodipodi.sourceforge.net/DTD/sodipodi-0.dtd"
   xmlns:inkscape="http://www.inkscape.org/namespaces/inkscape"
   width="20px"
   height="20px"
   viewBox="0 0 20 20"
   version="1.1"
   id="SVGRoot"
   inkscape:version="0.92.0 r15299"
   sodipodi:docname="money.svg">
  <sodipodi:namedview
     id="base"
     pagecolor="#ffffff"
     bordercolor="#666666"
     borderopacity="1.0"
     inkscape:pageopacity="0.0"
     inkscape:pageshadow="2"
     inkscape:zoom="72.407734"
     inkscape:cx="9.3241526"
     inkscape:cy="9.460407"
     inkscape:document-units="px"
     inkscape:current-layer="layer1"
     showgrid="false"
     inkscape:window-width="1920"
     inkscape:window-height="1017"
     inkscape:window-x="-8"
     inkscape:window-y="-8"
     inkscape:window-maximized="1"
     inkscape:grid-bbox="true"
     inkscape:pagecheckerboard="true" />
  <defs
     id="defs9757" />
  <metadata
     id="metadata9760">
    <rdf:RDF>
      <cc:Work
         rdf:about="">
        <dc:format>image/svg+xml</dc:format>
        <dc:type
           rdf:resource="http://purl.org/dc/dcmitype/StillImage" />
        <dc:title></dc:title>
      </cc:Work>
    </rdf:RDF>
  </metadata>
  <g
     id="layer1"
     inkscape:groupmode="layer"
     inkscape:label="Layer 1">
    <path
       inkscape:href="#rect3988"
       transform="matrix(0.18738335,0,0,0.15376984,-7.2204832,-9.3479609)"
       d="m 69.089844,112.44727 a 5.7513871,5.7513871 0 0 0 -5.75,5.75 v 1 1 22.1875 a 5.7513871,5.7513871 0 0 0 5.75,5.75 h 69.623046 a 5.7513871,5.7513871 0 0 0 5.75,-5.75 v -24.1875 a 5.7513871,5.7513871 0 0 0 -5.75,-5.75 z"
       id="path3994-20-6"
       style="fill:#ff922f;fill-opacity:1;stroke-width:0.26458332"
       xlink:href="#rect3988"
       inkscape:original="M 69.089844 118.19727 L 69.089844 119.19727 L 69.089844 120.19727 L 69.089844 142.38477 L 138.71289 142.38477 L 138.71289 118.19727 L 69.089844 118.19727 z "
       inkscape:radius="5.7508121"
       sodipodi:type="inkscape:offset" />
    <path
       d="M 7.6951821,10.624324 A 3.8061566,3.71527 0 0 1 3.8950308,14.339589 3.8061566,3.71527 0 0 1 0.08288776,10.636048 3.8061566,3.71527 0 0 1 3.8710094,6.9090954 3.8061566,3.71527 0 0 1 7.6951063,10.600876 l -3.8060809,0.02345 z"
       sodipodi:end="6.2768741"
       sodipodi:start="0"
       sodipodi:ry="3.71527"
       sodipodi:rx="3.8061566"
       sodipodi:cy="10.624324"
       sodipodi:cx="3.8890254"
       sodipodi:type="arc"
       id="path3961"
       style="fill:#d45500;fill-opacity:1;stroke-width:0.05176339" />
    <ellipse
       cy="10.535867"
       cx="4.4327617"
       id="path3959"
       style="fill:#ffcc00;fill-opacity:1;stroke-width:0.05064822"
       rx="3.7155337"
       ry="3.626811" />
    <g
       aria-label="S"
       transform="scale(1.2683095,0.7884511)"
       style="font-style:normal;font-variant:normal;font-weight:normal;font-stretch:normal;font-size:5.49284649px;line-height:3.43302894px;font-family:'Showcard Gothic';-inkscape-font-specification:'Showcard Gothic';letter-spacing:0px;word-spacing:0px;fill:#d45500;fill-opacity:1;stroke:none;stroke-width:0.13732116"
       id="text3974">
      <path
         d="m 4.6157722,13.028605 q -0.198472,-0.04559 -0.3003901,-0.04559 -0.1260565,0 -0.2306566,0.08582 -0.1260566,0.1046 -0.1260566,0.270888 0,0.128738 0.2306567,0.49618 0.2306566,0.367441 0.2306566,0.675877 0,0.447903 -0.3406208,0.734883 -0.3245286,0.276252 -0.8019342,0.276252 -0.4398568,0 -0.649057,-0.06169 -0.024138,-0.123374 -0.083144,-0.402308 -0.037549,-0.150195 -0.1046001,-0.399626 0.2950259,0.07242 0.396944,0.07242 0.399626,0 0.399626,-0.303072 0,-0.219929 -0.1609232,-0.394262 Q 2.8134319,13.803719 2.5505906,13.57038 2.0410004,13.119795 2.0410004,12.500241 q 0,-0.646375 0.4827697,-0.97895 0.4210825,-0.289662 1.1210985,-0.289662 0.396944,0 0.8904419,0.115329 z"
         style="font-style:normal;font-variant:normal;font-weight:normal;font-stretch:normal;font-family:'Showcard Gothic';-inkscape-font-specification:'Showcard Gothic';fill:#d45500;fill-opacity:1;stroke-width:0.13732116"
         id="path21" />
    </g>
    <g
       aria-label="S"
       transform="scale(1.2683095,0.7884511)"
       style="font-style:normal;font-variant:normal;font-weight:normal;font-stretch:normal;font-size:5.49284649px;line-height:3.43302894px;font-family:'Showcard Gothic';-inkscape-font-specification:'Showcard Gothic';letter-spacing:0px;word-spacing:0px;fill:#ff7f2a;fill-opacity:1;stroke:none;stroke-width:0.13732116"
       id="text3978">
      <path
         d="m 4.9015799,13.124771 q -0.198472,-0.0456 -0.30039,-0.0456 -0.1260566,0 -0.2306567,0.08583 -0.1260565,0.1046 -0.1260565,0.270887 0,0.128739 0.2306566,0.49618 0.2306567,0.367442 0.2306567,0.675878 0,0.447903 -0.3406209,0.734883 -0.3245285,0.276251 -0.8019341,0.276251 -0.4398569,0 -0.6490571,-0.06169 -0.024138,-0.123374 -0.083144,-0.402308 -0.037549,-0.150195 -0.1046001,-0.399626 0.295026,0.07242 0.396944,0.07242 0.3996261,0 0.3996261,-0.303072 0,-0.219928 -0.1609233,-0.394262 -0.2628413,-0.230656 -0.5256825,-0.463995 -0.5095903,-0.450585 -0.5095903,-1.07014 0,-0.646375 0.4827697,-0.978949 0.4210825,-0.289662 1.1210986,-0.289662 0.396944,0 0.8904419,0.115328 z"
         style="font-style:normal;font-variant:normal;font-weight:normal;font-stretch:normal;font-family:'Showcard Gothic';-inkscape-font-specification:'Showcard Gothic';fill:#ff7f2a;fill-opacity:1;stroke-width:0.13732116"
         id="path24" />
    </g>
  </g>
</svg>
